PathFileType        4      (X/Y/Z)      C:\Users\pc\Desktop\IMUTRC\Sujet_06\Sujet_06_Tpose.trc         
DataRate	CameraRate	NumFrames	NumMarkers	Units	OrigDataRate	OrigDataStartFrame	OrigNumFrames
60.0	60.0	4	64	mm	60.0	32	127
Frame#	Time	pHipOrigin			pRightASI			pLeftASI			pRightCSI			pLeftCSI			pRightIschialTub			pLeftIschialTub			pSacrum			pL5SpinalProcess			pL3SpinalProcess			pT12SpinalProcess			pIJ			pT4SpinalProcess			pT8SpinalProcess			pPX			pC7SpinalProcess			pTopOfHead			pRightAuricularis			pLeftAuricularis			pBackOfHead			pRightAcromion			pLeftAcromion			pRightArmLatEpicondyle			pRightArmMedEpicondyle			pLeftArmLatEpicondyle			pLeftArmMedEpicondyle			pRightUlnarStyloid			pRightRadialStyloid			pRightOlecranon			pLeftUlnarStyloid			pLeftRadialStyloid			pLeftOlecranon			pRightTopOfHand			pRightPinky			pRightBallHand			pLeftTopOfHand			pLeftPinky			pLeftBallHand			pRightGreaterTrochanter			pRightKneeLatEpicondyle			pRightKneeMedEpicondyle			pRightPatella			pLeftGreaterTrochanter			pLeftKneeLatEpicondyle			pLeftKneeMedEpicondyle			pLeftPatella			pRightTibialTub			pRightLatMalleolus			pRightMedMalleolus			pLeftTibialTub			pLeftLatMalleolus			pLeftMedMalleolus			pRightHeelFoot			pRightFirstMetatarsal			pRightFifthMetatarsal			pRightPivotFoot			pRightHeelCenter			pRightToe			pLeftHeelFoot			pLeftFirstMetatarsal			pLeftFifthMetatarsal			pLeftPivotFoot			pLeftHeelCenter			pLeftToe			
		X1	Y1	Z1	X2	Y2	Z2	X3	Y3	Z3	X4	Y4	Z4	X5	Y5	Z5	X6	Y6	Z6	X7	Y7	Z7	X8	Y8	Z8	X9	Y9	Z9	X10	Y10	Z10	X11	Y11	Z11	X12	Y12	Z12	X13	Y13	Z13	X14	Y14	Z14	X15	Y15	Z15	X16	Y16	Z16	X17	Y17	Z17	X18	Y18	Z18	X19	Y19	Z19	X20	Y20	Z20	X21	Y21	Z21	X22	Y22	Z22	X23	Y23	Z23	X24	Y24	Z24	X25	Y25	Z25	X26	Y26	Z26	X27	Y27	Z27	X28	Y28	Z28	X29	Y29	Z29	X30	Y30	Z30	X31	Y31	Z31	X32	Y32	Z32	X33	Y33	Z33	X34	Y34	Z34	X35	Y35	Z35	X36	Y36	Z36	X37	Y37	Z37	X38	Y38	Z38	X39	Y39	Z39	X40	Y40	Z40	X41	Y41	Z41	X42	Y42	Z42	X43	Y43	Z43	X44	Y44	Z44	X45	Y45	Z45	X46	Y46	Z46	X47	Y47	Z47	X48	Y48	Z48	X49	Y49	Z49	X50	Y50	Z50	X51	Y51	Z51	X52	Y52	Z52	X53	Y53	Z53	X54	Y54	Z54	X55	Y55	Z55	X56	Y56	Z56	X57	Y57	Z57	X58	Y58	Z58	X59	Y59	Z59	X60	Y60	Z60	X61	Y61	Z61	X62	Y62	Z62	X63	Y63	Z63	X64	Y64	Z64	
32	0.517	1137.63054	894.6147600000002	-1008.7794	1207.1046	981.52905	-900.2369399999999	1180.42794	983.0780100000001	-1129.25465	1165.22511	1039.12769	-913.2023699999999	1142.7364	1040.44718	-1106.24961	1095.98053	843.6709400000001	-955.36871	1084.73617	844.3020000000001	-1051.92101	1079.34347	911.8255100000001	-1001.8951	1104.81538	994.1502600000001	-1003.5014399999999	1107.28226	1109.0607	-1002.8703799999998	1096.0379	1213.30047	-1000.3461299999999	1221.44689	1448.34194	-1022.0890499999999	1075.72922	1408.18353	-996.3302899999999	1081.5235	1317.2534	-997.4202999999999	1234.4697	1324.53928	-1024.49855	1073.03286	1464.46268	-994.9534299999999	1107.45436	1735.64672	-983.2501199999999	1137.22896	1626.53057	-925.5367399999999	1100.45533	1638.63546	-1064.94381	1064.19801	1624.86686	-981.4716799999999	1132.35258	1454.82466	-823.5917299999999	1058.4611	1456.31626	-1174.57629	1182.66534	1403.24978	-553.2108599999999	1240.32135	1384.37532	-570.1921299999999	964.60514	1369.91829	-1431.07382	1020.82692	1343.12689	-1440.94132	1257.87631	1335.72627	-315.58777999999995	1235.33023	1381.6216	-305.8923899999999	1219.89793	1372.04095	-569.4463299999999	904.71173	1282.31558	-1665.94319	876.54347	1326.03088	-1663.59105	1005.96831	1336.47207	-1433.5407	1291.09306	1348.23275	-149.4466799999999	1301.19003	1330.73515	-228.55874999999992	1274.62811	1353.68282	-288.5668999999999	874.0766	1281.28293	-1830.13374	906.83439	1263.15428	-1757.56174	907.98178	1292.52729	-1694.51303	1151.68599	862.60277	-861.91434	1112.84707	485.17103000000003	-876.54347	1106.42172	482.93363000000005	-950.03337	1150.59598	482.7615200000001	-919.2835	1116.28921	862.3732900000001	-1154.21023	1088.80938	484.8268100000001	-1124.43564	1101.48797	483.85154000000006	-1051.7489	1136.25368	483.6794300000001	-1092.76786	1161.20927	450.4053200000001	-919.05403	1096.0379	85.82427000000006	-872.06868	1090.98941	83.93109000000005	-930.92944	1146.12118	450.29058000000003	-1095.06262	1067.41069	86.05375000000006	-1117.83818	1077.50766	85.02110000000008	-1059.60848	1060.52639	-0.05736999999994462	-904.36752	1212.4973	12.850690000000059	-957.49137	1220.75846	7.056410000000054	-881.76407	1238.02658	11.301730000000056	-922.89776	1097.58687	4.130580000000056	-908.09651	1313.63914	15.948630000000056	-930.8147	1041.93878	0.05737000000006611	-1079.74506	1202.85929	11.588570000000066	-1085.94093	1182.43586	11.12962000000007	-1159.54557	1213.75943	12.793320000000069	-1127.53357	1077.73714	4.5895300000000665	-1089.72729	1286.96248	18.071290000000072	-1147.89962	
33	0.533	1137.57318	894.6147600000002	-1008.83677	1207.04723	981.58642	-900.3516799999999	1180.37057	983.0780100000001	-1129.31202	1165.16774	1039.12769	-913.2597399999999	1142.67903	1040.44718	-1106.30698	1095.98053	843.6709400000001	-955.42608	1084.6788	844.3020000000001	-1051.97838	1079.2861	911.8255100000001	-1001.95247	1104.75801	994.1502600000001	-1003.5588099999999	1107.22489	1109.0607	-1002.9277399999999	1096.0379	1213.30047	-1000.4608699999999	1221.50426	1448.34194	-1022.1464099999998	1075.72922	1408.18353	-996.4450299999999	1081.5235	1317.2534	-997.4776699999999	1234.4697	1324.53928	-1024.55592	1073.09023	1464.46268	-995.0107999999999	1107.51173	1735.64672	-983.4222299999999	1137.28633	1626.53057	-925.6514799999999	1100.51269	1638.63546	-1065.05855	1064.31275	1624.92423	-981.5864199999999	1132.35258	1454.82466	-823.7064699999999	1058.51847	1456.31626	-1174.63366	1182.66534	1403.24978	-553.2682299999999	1240.32135	1384.37532	-570.3068699999999	964.66251	1369.86092	-1431.18856	1020.82692	1343.06952	-1440.99869	1257.87631	1335.72627	-315.64514999999994	1235.3876	1381.67897	-306.00712999999996	1219.89793	1372.04095	-569.5036999999999	904.7691	1282.20084	-1666.00056	876.60084	1325.91614	-1663.64842	1005.96831	1336.4147	-1433.59807	1291.03569	1348.23275	-149.50403999999992	1301.19003	1330.73515	-228.6161199999999	1274.62811	1353.68282	-288.62426999999997	874.13397	1281.1682	-1830.19111	906.89176	1263.03954	-1757.61911	908.03915	1292.41255	-1694.5704	1151.62862	862.60277	-861.97171	1112.7897	485.17103000000003	-876.54347	1106.42172	482.93363000000005	-950.03337	1150.53861	482.7615200000001	-919.2835	1116.23185	862.3732900000001	-1154.2676	1088.86675	484.8268100000001	-1124.49301	1101.48797	483.85154000000006	-1051.7489	1136.31105	483.7368000000001	-1092.76786	1161.1519	450.46268000000003	-919.11139	1096.0379	85.82427000000006	-872.06868	1090.98941	83.93109000000005	-930.92944	1146.17855	450.29058000000003	-1095.06262	1067.41069	86.05375000000006	-1117.83818	1077.50766	85.02110000000008	-1059.60848	1060.52639	-0.05736999999994462	-904.36752	1212.4973	12.850690000000059	-957.49137	1220.75846	7.056410000000054	-881.76407	1238.02658	11.301730000000056	-922.89776	1097.58687	4.130580000000056	-908.09651	1313.63914	15.948630000000056	-930.75733	1041.93878	0.05737000000006611	-1079.74506	1202.85929	11.588570000000066	-1085.9983	1182.43586	11.18699000000007	-1159.54557	1213.75943	12.793320000000069	-1127.59094	1077.73714	4.5895300000000665	-1089.72729	1286.96248	18.071290000000072	-1147.95699	
34	0.55	1137.51581	894.6147600000002	-1008.89414	1207.04723	981.58642	-900.4090499999999	1180.3132	983.0780100000001	-1129.36938	1165.11037	1039.12769	-913.3171099999998	1142.56429	1040.44718	-1106.36435	1095.92316	843.6709400000001	-955.48345	1084.6788	844.3593700000001	-1052.03575	1079.22873	911.8255100000001	-1002.00984	1104.70064	994.1502600000001	-1003.5588099999999	1107.22489	1109.0607	-1002.9851099999998	1095.98053	1213.30047	-1000.5182399999999	1221.50426	1448.28457	-1022.2611499999999	1075.72922	1408.18353	-996.5023999999999	1081.46613	1317.31077	-997.5924099999999	1234.4697	1324.48192	-1024.61329	1073.09023	1464.52005	-995.1255399999999	1107.5691	1735.70409	-983.5943399999999	1137.40107	1626.58794	-925.7662199999999	1100.57006	1638.57809	-1065.17329	1064.37012	1624.92423	-981.7011499999999	1132.40995	1454.88203	-823.7638399999998	1058.57583	1456.31626	-1174.74839	1182.66534	1403.30715	-553.3829699999999	1240.32135	1384.37532	-570.3642399999999	964.66251	1369.80356	-1431.24593	1020.88429	1343.01216	-1441.05606	1257.87631	1335.78364	-315.75987999999995	1235.3876	1381.73634	-306.06449999999995	1219.89793	1372.09832	-569.6184399999999	904.7691	1282.14347	-1666.05792	876.60084	1325.85878	-1663.70579	1006.02568	1336.35733	-1433.65544	1291.03569	1348.29012	-149.5614099999999	1301.19003	1330.79252	-228.6734899999999	1274.62811	1353.74019	-288.73900999999995	874.13397	1281.05346	-1830.24847	906.89176	1262.9248	-1757.67648	908.03915	1292.35518	-1694.68514	1151.57125	862.60277	-862.02908	1112.7897	485.17103000000003	-876.60084	1106.36435	482.93363000000005	-950.09074	1150.53861	482.7615200000001	-919.34087	1116.17448	862.3732900000001	-1154.32497	1088.86675	484.8268100000001	-1124.49301	1101.48797	483.90891000000005	-1051.80627	1136.31105	483.7368000000001	-1092.82523	1161.1519	450.46268000000003	-919.11139	1096.0379	85.82427000000006	-872.06868	1090.98941	83.93109000000005	-930.92944	1146.17855	450.29058000000003	-1095.06262	1067.41069	86.05375000000006	-1117.83818	1077.50766	85.02110000000008	-1059.60848	1060.52639	-0.05736999999994462	-904.36752	1212.4973	12.850690000000059	-957.49137	1220.75846	7.056410000000054	-881.76407	1238.02658	11.301730000000056	-922.89776	1097.58687	4.130580000000056	-908.09651	1313.63914	15.948630000000056	-930.75733	1041.93878	0.11474000000006611	-1079.74506	1202.85929	11.588570000000066	-1085.9983	1182.37849	11.18699000000007	-1159.60293	1213.75943	12.793320000000069	-1127.59094	1077.73714	4.5895300000000665	-1089.72729	1286.96248	18.071290000000072	-1147.95699	
35	0.567	1137.51581	894.6147600000002	-1008.95151	1206.98987	981.58642	-900.4090499999999	1180.25583	983.1353800000002	-1129.42675	1165.05301	1039.12769	-913.3744799999998	1142.56429	1040.44718	-1106.42172	1095.86579	843.6709400000001	-955.54081	1084.62144	844.3593700000001	-1052.03575	1079.22873	911.8255100000001	-1002.06721	1104.64327	994.1502600000001	-1003.6161699999999	1107.16752	1109.0607	-1003.0424799999998	1095.98053	1213.30047	-1000.5756099999999	1221.56163	1448.28457	-1022.3758899999999	1075.72922	1408.2409	-996.6171399999998	1081.5235	1317.31077	-997.6497799999999	1234.4697	1324.48192	-1024.67066	1073.1476	1464.52005	-995.1829099999999	1107.68384	1735.70409	-983.7090699999999	1137.45844	1626.58794	-925.8809599999998	1100.62743	1638.57809	-1065.28803	1064.42749	1624.9816	-981.8158899999999	1132.46732	1454.9394	-823.8785799999999	1058.57583	1456.31626	-1174.80576	1182.66534	1403.36452	-553.4403399999999	1240.32135	1384.43269	-570.4216099999999	964.71988	1369.80356	-1431.3033	1020.88429	1342.95479	-1441.1708	1257.87631	1335.89838	-315.81724999999994	1235.44497	1381.79371	-306.12186999999994	1219.89793	1372.09832	-569.6758099999998	904.7691	1282.14347	-1666.11529	876.65821	1325.80141	-1663.76316	1006.02568	1336.29996	-1433.71281	1291.03569	1348.46223	-149.6187799999999	1301.19003	1330.90726	-228.73085999999992	1274.68548	1353.85493	-288.79637999999994	874.0766	1280.99609	-1830.30584	906.89176	1262.9248	-1757.73385	908.03915	1292.35518	-1694.74251	1151.51388	862.60277	-862.08644	1112.73233	485.17103000000003	-876.60084	1106.36435	482.93363000000005	-950.09074	1150.48124	482.7615200000001	-919.34087	1116.11711	862.3732900000001	-1154.38234	1088.92412	484.8268100000001	-1124.55037	1101.54534	483.90891000000005	-1051.80627	1136.36842	483.7368000000001	-1092.82523	1161.09453	450.46268000000003	-919.16876	1096.0379	85.82427000000006	-872.06868	1091.04678	83.93109000000005	-930.92944	1146.17855	450.29058000000003	-1095.11999	1067.41069	86.05375000000006	-1117.83818	1077.50766	85.02110000000008	-1059.60848	1060.52639	-0.05736999999994462	-904.36752	1212.4973	12.850690000000059	-957.434	1220.75846	7.056410000000054	-881.76407	1238.02658	11.301730000000056	-922.89776	1097.58687	4.130580000000056	-908.09651	1313.63914	15.948630000000056	-930.75733	1041.88141	0.11474000000006611	-1079.74506	1202.85929	11.588570000000066	-1085.9983	1182.37849	11.18699000000007	-1159.60293	1213.75943	12.793320000000069	-1127.59094	1077.73714	4.5895300000000665	-1089.72729	1286.96248	18.071290000000072	-1148.01436	
